<svg height="256" viewBox="0 0 3600 1000" width="921.6" xmlns="http://www.w3.org/2000/svg"><rect fill="#159eee" height="1000" rx="133" width="1000"/><g fill="#f4f4f4" fill-rule="evenodd"><path d="m826.962 368c0 22 2 51 4 74-35-71-91-115-184-115-148 0-239 113-239 288 0 180 92 295 238 295 93 0 150-43 184-113-1 14-3 35-3 46v21c0 21 14 37 43 37 28 0 46-13 46-40v-711c0-27-17-40-45-40-25 0-44 13-44 40zm-168 37c110 0 170 90 170 212 0 124-65 215-170 215-101 0-159-85-159-216 0-127 58-211 159-211z"/><path d="m1327.73 328.574c-162 .016-258.99 117.026-258.97 290.026.01 178 96.03 293.99 261.03 293.974 156-.016 251.98-120.025 251.97-294.025s-94.03-289.991-254.03-289.975zm3.01 77c102-.011 159 85.984 159.02 211.984.01 133-56.98 218.005-165.98 218.016-103 .011-163.01-86.983-163.02-213.983-.02-133 61.98-216.007 169.98-216.017zm613.02 268.938c-13 34-31.99 105-40.99 142.005-8-36-28.01-103-40.01-137l-116.03-314.985c-7-20-22.01-28-40.01-28a74.631 74.631 0 0 0 -19.99 3c-19 5-32 20-32 39a49.729 49.729 0 0 0 3 16l184.05 466.982c12 31 33 41 60 40.994 26 0 48-9.005 60-40.006l183.95-468.019a38.1 38.1 0 0 0 4-17c0-19-13-32-33-38a68.046 68.046 0 0 0 -19.01-3c-18 0-31.99 9-39.99 29zm764.97-151.076c-.01-123-64.02-194.993-183.02-194.982-105 .011-159.99 53.016-192.99 124.02 2-15 6-38 6-51l-.03-251c0-27-17-39-43-39-28 0-47 13-47 39l.08 712c0 27 19 40 47 40 26 0 43-13 43-40l-.03-280c-.01-39 10.99-68 35.99-102 32.99-44 76.99-70.007 132.99-70.013 75-.007 110 46.989 110.01 131.989l.04 320c0 27 18 40 45 40 26 0 46-13 46-40zm478 18.952c-107 2.011-159 8.016-214 23.022-94.99 26.009-150.99 86.015-150.98 180.015.01 103 67.02 164.993 177.02 164.982 99-.01 151.99-39.015 189.99-82.019 1 20 3 38 6 50 4.01 18 22.01 24 42.01 24h9c25-2 40-16 39.99-32a35.53 35.53 0 0 0 -2-10c-6-19-11-53-11.01-88l-.02-273c-.01-118-66.02-170.994-200.02-170.98-81 .008-126 17.012-161 44.016-22.99 18-48.99 47.005-58.99 78.006-1 4-2 8-2 12 .01 18 14.01 32 33.01 38 7 3 15 4 23 4 17 0 32-7 38.99-26 17-46 53-74 126-74.012 79-.008 115 28.988 115.01 94.988v43zm.01 139c.01 38-6.99 57-25.99 81-31.99 40-83.99 71.008-146.99 71.015-60 .006-100-34.99-100.01-86.99 0-48 20.99-79 60.99-99.006s95-30.01 212-33.022v67zm234.02 180.977c0 27 18.01 40 46.01 40 27 0 44.99-13 44.99-40l-.07-711c0-27-18-40-45-40-28 0-46 13-46 40.005z"/></g></svg>