<svg version="1" xmlns="http://www.w3.org/2000/svg" width="682.667" height="682.667" viewBox="0 0 512.000000 512.000000"><path d="M51.9 1.5C29.7 6.9 11.4 23.7 3.2 46.2L.5 53.5v405l2.7 7.3c3.9 10.8 8.4 17.8 16.8 26.2 8.4 8.4 15.4 12.9 26.2 16.8l7.3 2.7h405l7.3-2.7c10.8-3.9 17.8-8.4 26.2-16.8 8.4-8.4 12.9-15.4 16.8-26.2l2.7-7.3v-405l-2.7-7.3c-3.9-10.8-8.4-17.8-16.8-26.2-8.4-8.4-15.4-12.9-26.2-16.8L458.5.5 258 .3C91.8.2 56.5.4 51.9 1.5zm380.5 55.6c2.4.6 6 2.4 8 4.1 7.1 5.8 6.7-7.8 6.4 199.4-.3 155.3-.5 186.3-1.7 188.4-4.4 8.1-12 11.5-23.7 10.8-9.4-.6-14.6-3.8-17.6-10.6-2-4.4-2.1-5.9-1.4-23.7l.6-19-4 7.2c-16.7 30.5-42.1 46.9-78.1 50.5-27.2 2.6-55-3.9-76-17.7-9.4-6.2-24.1-20.9-30.2-30.2-13.4-20.3-22.4-46.2-25.7-74.3-1.4-12.2-1.4-42.9 0-54.5 5.3-43.4 22.5-77.3 49.2-97.6 36.4-27.5 93.7-30.4 129.6-6.6 11.9 8 25.7 23.8 32.6 37.5 1.5 3 2.9 5.2 3.2 4.9.2-.2 0-6.4-.6-13.8-.5-7.4-1-42-1-76.9 0-59.9.2-63.7 1.9-67.6 4.2-9.2 16-13.5 28.5-10.3z"/><path d="M303.5 207c-35.1 5.5-57.3 29.9-66.7 73.2-1.9 9-2.2 13.3-2.3 34.3 0 21.2.3 25.3 2.3 35.3 5 24.8 12.8 40.7 26.7 54.8 7.5 7.5 10.5 9.8 17.5 13.2 12.1 5.9 20 7.6 35 7.5 13.5-.1 23.4-2 33.7-6.7 26-12 44.2-38.6 51-74.7 2.4-13 2.4-44.6-.1-57.8-5-26.8-16.8-49.2-33.1-62.4-7.6-6.2-19.8-12.2-29.8-14.7-9.2-2.3-25.8-3.3-34.2-2z"/></svg>